<?xml version="1.0" encoding="iso-8859-1"?>
<!-- Generator: Adobe Illustrator 19.0.0, SVG Export Plug-In . SVG Version: 6.00 Build 0)  -->
<svg version="1.1" id="Capa_1" xmlns="http://www.w3.org/2000/svg" xmlns:xlink="http://www.w3.org/1999/xlink" x="0px" y="0px"
	 viewBox="0 0 512 512" style="enable-background:new 0 0 512 512;" xml:space="preserve">
<path style="fill:#03424F;" d="M290.503,325.323h-69.007c-8.284,0-15,6.716-15,15v133.355c0,8.284,6.716,15,15,15s60.723,0,69.007,0
	s15-6.716,15-15V340.323C305.503,332.039,298.788,325.323,290.503,325.323z"/>
<g>
	<path style="fill:#105C6E;" d="M256,325.323h-34.503c-8.284,0-15,6.716-15,15v133.355c0,8.284,6.716,15,15,15H256V325.323z"/>
	<path style="fill:#105C6E;" d="M354.636,458.679H157.364c-8.284,0-15,6.716-15,15s6.716,15,15,15h197.271c8.284,0,15-6.716,15-15
		S362.92,458.679,354.636,458.679z"/>
</g>
<path style="fill:#26879C;" d="M256,458.679h-98.636c-8.284,0-15,6.716-15,15s6.716,15,15,15H256V458.679z"/>
<path style="fill:#105C6E;" d="M482,23.321H30c-16.542,0-30,13.458-30,30v316.002c0,16.542,13.458,30,30,30h452
	c16.542,0,30-13.458,30-30V53.321C512,36.779,498.542,23.321,482,23.321z"/>
<path style="fill:#26879C;" d="M256,23.321H30c-16.542,0-30,13.458-30,30v316.002c0,16.542,13.458,30,30,30h226V23.321z"/>
<path style="fill:#23A698;" d="M441.645,78.043H70.355c-8.284,0-15,6.716-15,15v236.56c0,8.284,6.716,15,15,15h371.289
	c8.284,0,15-6.716,15-15V93.043C456.645,84.759,449.929,78.043,441.645,78.043z"/>
<path style="fill:#55D4B6;" d="M256,78.043H70.355c-8.284,0-15,6.716-15,15v236.56c0,8.284,6.716,15,15,15H256V78.043z"/>
<path style="fill:#C8C0BA;" d="M271,136.896V78.043h-30v58.853c-34.702,6.983-60.921,37.697-60.921,74.426
	s26.218,67.443,60.921,74.426v58.854h30v-58.854c34.702-6.983,60.921-37.697,60.921-74.426S305.702,143.879,271,136.896z
	 M241,254.714c-17.975-6.232-30.921-23.323-30.921-43.392s12.946-37.16,30.921-43.392V254.714z M271,254.714V167.93
	c17.975,6.232,30.921,23.323,30.921,43.392S288.975,248.483,271,254.714z"/>
<path style="fill:#F4F2E6;" d="M256,344.603V78.043h-15v58.853c-34.702,6.983-60.921,37.697-60.921,74.426
	s26.218,67.443,60.921,74.426v58.854h15V344.603z M210.079,211.322c0-20.069,12.946-37.16,30.921-43.392v86.784
	C223.025,248.483,210.079,231.391,210.079,211.322z"/>
<g>
	<path style="fill:#428596;" d="M362.989,168.688h13.66c8.284,0,15-6.716,15-15s-6.716-15-15-15h-13.66c-8.284,0-15,6.716-15,15
		S354.705,168.688,362.989,168.688z"/>
	<path style="fill:#428596;" d="M386.65,196.322h-13.66c-8.284,0-15,6.716-15,15s6.716,15,15,15h13.66c8.284,0,15-6.716,15-15
		S394.934,196.322,386.65,196.322z"/>
	<path style="fill:#428596;" d="M376.649,253.956h-13.66c-8.284,0-15,6.716-15,15s6.716,15,15,15h13.66c8.284,0,15-6.716,15-15
		S384.934,253.956,376.649,253.956z"/>
</g>
<g>
	<path style="fill:#FC8774;" d="M159.011,138.688h-13.66c-8.284,0-15,6.716-15,15s6.716,15,15,15h13.66c8.284,0,15-6.716,15-15
		S167.295,138.688,159.011,138.688z"/>
	<path style="fill:#FC8774;" d="M154.01,211.322c0-8.284-6.716-15-15-15h-13.66c-8.284,0-15,6.716-15,15s6.716,15,15,15h13.66
		C147.294,226.322,154.01,219.606,154.01,211.322z"/>
	<path style="fill:#FC8774;" d="M159.011,253.956h-13.66c-8.284,0-15,6.716-15,15s6.716,15,15,15h13.66c8.284,0,15-6.716,15-15
		S167.295,253.956,159.011,253.956z"/>
</g>
<g>
</g>
<g>
</g>
<g>
</g>
<g>
</g>
<g>
</g>
<g>
</g>
<g>
</g>
<g>
</g>
<g>
</g>
<g>
</g>
<g>
</g>
<g>
</g>
<g>
</g>
<g>
</g>
<g>
</g>
</svg>
