<svg height="512" viewBox="0 0 512 512" width="512" xmlns="http://www.w3.org/2000/svg"><path d="m224 96a8.024 8.024 0 0 1 -4.195-1.188l-104-64a8 8 0 0 1 8.39-13.624l99.805 61.421 99.805-61.421a8 8 0 1 1 8.39 13.624l-104 64a8.024 8.024 0 0 1 -4.195 1.188z" fill="#3e8cc7"/><rect fill="#69b9e7" height="400" rx="32" width="464" x="24" y="88"/><path d="m72.224 136.112h304v304h-304z" fill="#41dfd0"/><path d="m72 423.807h304v16.193h-304z" fill="#2ed6d1"/><path d="m184 256a72 72 0 1 1 84.836 70.859c-1.593.287-3.205 1.521-4.833 1.7-1.681.186-3.379-.686-5.092-.618q-1.449.059-2.911.059a72 72 0 0 1 -72-72z" fill="#ff9201"/><path d="m264 327.531v-63.531h16.529a64.942 64.942 0 0 0 25.5 43.713 72.259 72.259 0 0 0 10.22-12.356 48.818 48.818 0 0 1 -19.493-31.357h30.775q.279-2.523.395-5.09c.039-.966.074-1.934.074-2.91s-.035-1.943-.074-2.91q-.114-2.568-.395-5.09h-30.775a48.818 48.818 0 0 1 19.494-31.357 72.259 72.259 0 0 0 -10.22-12.356 64.942 64.942 0 0 0 -25.501 43.713h-16.529v-63.531q-2.521-.279-5.09-.395c-.967-.039-1.934-.074-2.91-.074s-1.943.035-2.91.074q-2.568.114-5.09.395v63.531h-16.529a64.942 64.942 0 0 0 -25.5-43.713 72.259 72.259 0 0 0 -10.22 12.356 48.818 48.818 0 0 1 19.493 31.357h-30.775q-.279 2.522-.395 5.09c-.039.967-.074 1.934-.074 2.91s.035 1.944.074 2.91q.114 2.568.395 5.09h30.775a48.818 48.818 0 0 1 -19.494 31.357 72.259 72.259 0 0 0 10.22 12.356 64.942 64.942 0 0 0 25.501-43.713h16.529v63.531q2.522.279 5.09.395c.967.039 1.934.074 2.91.074s1.943-.035 2.91-.074q2.568-.114 5.09-.395z" fill="#d37636"/><path d="m214.275 243.512a71.936 71.936 0 0 0 -22.275-3.512c-2.1 0-4.176.138-6.235.315a71.856 71.856 0 0 0 70.235 87.685c2.105 0 4.176-.138 6.235-.315l-38.235-69.125z" fill="#f48b00"/><path d="m215.244 264a48.818 48.818 0 0 1 -19.494 31.357 72.259 72.259 0 0 0 10.217 12.353 64.942 64.942 0 0 0 25.504-43.71h14.087a71.958 71.958 0 0 0 -31.295-20.451c.392 1.464.726 2.948.981 4.451h-30.775a68.465 68.465 0 0 0 0 16z" fill="#c06c32"/><path d="m248 327.531a72.6 72.6 0 0 0 8 .469c2.113 0 4.179-.18 6.244-.366a71.532 71.532 0 0 0 -14.244-60.842z" fill="#c06c32"/><circle cx="432" cy="152" fill="#62abd7" r="24"/><circle cx="432" cy="232" fill="#62abd7" r="24"/><circle cx="432" cy="224" fill="#dbdbdb" r="24"/><path d="m376 280h112v160h-112z" fill="#e4e4e2"/><g fill="#c3c3c3"><path d="m408 304h16v16h-16z"/><path d="m408 336h16v16h-16z"/><path d="m408 368h16v16h-16z"/><path d="m408 400h16v16h-16z"/><path d="m440 304h16v16h-16z"/><path d="m440 336h16v16h-16z"/><path d="m440 368h16v16h-16z"/><path d="m440 400h16v16h-16z"/></g><path d="m248 327.531v.469a8 8 0 0 0 16 0v-.469a68.465 68.465 0 0 1 -16 0z" fill="#d37636"/><path d="m96 160h16v16h-16z" fill="#2bc9c4"/><path d="m96 192h16v16h-16z" fill="#2bc9c4"/><path d="m96 224h16v16h-16z" fill="#2bc9c4"/><path d="m120 320a72.04 72.04 0 0 1 100.026-66.342c5.307 2.245 9.29 11.108 13.857 14.5 4.172 3.1 9 .637 12.407 4.547a71.724 71.724 0 0 1 17.71 47.295q0 3.322-.3 6.57c-.056.621-1.12 1.24-1.192 1.856-4.168 35.794-33.594 63.574-70.508 63.574a72 72 0 0 1 -72-72z" fill="#ebebeb"/><path d="m192 376a8 8 0 0 1 -8-7.977l-.125-38.367a8 8 0 0 1 7.977-8.023h.023a8 8 0 0 1 8 7.976l.125 38.368a8 8 0 0 1 -7.977 8.023z" fill="#e4e4e2"/><path d="m235.922 342.227a7.98 7.98 0 0 1 -2.43-.375l-33.367-10.633a8 8 0 0 1 4.859-15.25l33.368 10.631a8 8 0 0 1 -2.43 15.625z" fill="#e4e4e2"/><path d="m196.406 322.312a8 8 0 0 1 -6.492-12.664l24.641-34.312a8 8 0 1 1 13 9.328l-24.641 34.313a7.984 7.984 0 0 1 -6.508 3.335z" fill="#e4e4e2"/><path d="m188.219 322.312a7.984 7.984 0 0 1 -6.453-3.257l-23.649-32.164a8 8 0 1 1 12.891-9.485l23.648 32.164a8 8 0 0 1 -6.437 12.742z" fill="#e4e4e2"/><path d="m142.773 344a8 8 0 0 1 -2.515-15.594l40.086-13.273a8 8 0 0 1 5.031 15.187l-40.086 13.274a8.082 8.082 0 0 1 -2.516.406z" fill="#e4e4e2"/><path d="m176 368v22.154a70.262 70.262 0 0 0 32 0v-22.154l-16-8z" fill="#3e8cc7"/><path d="m191.874 337.637 16.823-12.223-6.426-19.777h-20.795l-6.426 19.777z" fill="#3e8cc7"/><path d="m220.347 253.8-.027.037-12.96 17.84 8.24 15.92 17.68 2.96 12.994-17.841a72.172 72.172 0 0 0 -25.927-18.916z" fill="#3e8cc7"/><path d="m120.323 326.4a71.436 71.436 0 0 0 9.868 30.391l21.089-6.791 2.64-17.68-12.56-12.8z" fill="#3e8cc7"/><path d="m137.926 272.568 12.954 17.912 17.68-2.96 8.24-15.84-13.039-17.919a72.113 72.113 0 0 0 -25.835 18.807z" fill="#3e8cc7"/><path d="m254.153 330.681a39.871 39.871 0 0 0 -4.741 31.792 72.909 72.909 0 0 0 13.069-33.823c.019-.163.043-.326.061-.49.06-.528 1.114-1.058 1.162-1.59q.294-3.246.3-6.57a39.9 39.9 0 0 0 -9.851 10.681z" fill="#dbdbdb"/><path d="m230.08 332.4 2.72 17.68 20.355 6.6c4.9-8.459 8.609-13.667 9.8-23.9.068-.585.575-5.534.721-6.122 0-.033.008-.065.01-.1l-21.046-6.958z" fill="#3e8cc7"/><path d="m254.153 330.681a39.8 39.8 0 0 0 -6.036 24.368l5.034 1.641c4.9-8.46 8.807-15.611 10-25.843.068-.583.375-3.589.526-4.176 0-.039.009-.077.013-.116l-5.1-1.673a39.238 39.238 0 0 0 -4.437 5.799z" fill="#3474a6"/><circle cx="432" cy="144" fill="#dbdbdb" r="24"/><path d="m262.908 374.48a39.88 39.88 0 0 1 -6.151-30.243c.559-2.823 3.42-5.586 4.575-8.237 1.071-2.462.395-4.826 1.964-7.052a40.177 40.177 0 0 1 23.253-15.824c2.785-.676 5.614-.044 8.438-.112 2.769-.067 5.533-.847 8.246-.348a40 40 0 1 1 -40.325 61.816z" fill="#dbdbdb"/><path d="m264.305 329.672a6.49 6.49 0 0 0 -.664-.469l-.339-.25c-.02.028-.038.057-.057.085l-.015.019a40.013 40.013 0 0 0 -6.29 14.361 4.217 4.217 0 0 1 -.1.57c-.017.084-.038.169-.054.254a102.081 102.081 0 0 1 32.032 47.082q1 .183 2.023.338h.008a39.968 39.968 0 0 0 14.575-.781l-.342-1.194a118.322 118.322 0 0 0 -40.777-60.015z" fill="#de4c3b"/><path d="m286.551 313.13.363 1.19a118.317 118.317 0 0 0 40.774 60.016 6.277 6.277 0 0 0 .664.469l.351.231a39.978 39.978 0 0 0 6.087-13.309c.15-.653.291-1.308.42-1.961a102.178 102.178 0 0 1 -31.982-47.078l-.008-.021a40.031 40.031 0 0 0 -16.669.463z" fill="#de4c3b"/></svg>