<svg height="512pt" viewBox="0 -58 512 511" width="512pt" xmlns="http://www.w3.org/2000/svg" xmlns:xlink="http://www.w3.org/1999/xlink"><linearGradient id="a" gradientUnits="userSpaceOnUse" x1="256" x2="256" y1=".5" y2="394.5"><stop offset="0" stop-color="#2af598"/><stop offset="1" stop-color="#009efd"/></linearGradient><path d="m452 394.5h-392c-33.085938 0-60-26.914062-60-60v-274c0-33.085938 26.914062-60 60-60h392c33.085938 0 60 26.914062 60 60v274c0 33.085938-26.914062 60-60 60zm-392-354c-11.027344 0-20 8.972656-20 20v274c0 11.027344 8.972656 20 20 20h392c11.027344 0 20-8.972656 20-20v-274c0-11.027344-8.972656-20-20-20zm372 41h-102v40h62v63h40zm-251 192h-61v-63h-40v103h101zm0 0" fill="url(#a)"/></svg>