<svg height="512" viewBox="0 0 64 64" width="512" xmlns="http://www.w3.org/2000/svg" xmlns:xlink="http://www.w3.org/1999/xlink"><linearGradient id="New_Gradient_Swatch_3" gradientUnits="userSpaceOnUse" x1="32" x2="32" y1="61.777" y2=".009"><stop offset="0" stop-color="#006df0"/><stop offset="1" stop-color="#00e7f0"/></linearGradient><linearGradient id="New_Gradient_Swatch_3-2" x1="33.5" x2="33.5" xlink:href="#New_Gradient_Swatch_3" y1="61.777" y2=".009"/><g id="Traffic_light" data-name="Traffic light"><path d="m32 6a7 7 0 1 0 7 7 7.008 7.008 0 0 0 -7-7zm0 12a5 5 0 1 1 5-5 5.006 5.006 0 0 1 -5 5z" fill="url(#New_Gradient_Swatch_3)"/><path d="m32 9a1 1 0 0 0 0 2 2 2 0 0 1 2 2 1 1 0 0 0 2 0 4 4 0 0 0 -4-4z" fill="url(#New_Gradient_Swatch_3-2)"/><path d="m32 22a7 7 0 1 0 7 7 7.008 7.008 0 0 0 -7-7zm0 12a5 5 0 1 1 5-5 5.006 5.006 0 0 1 -5 5z" fill="url(#New_Gradient_Swatch_3)"/><path d="m32 25a1 1 0 0 0 0 2 2 2 0 0 1 2 2 1 1 0 0 0 2 0 4 4 0 0 0 -4-4z" fill="url(#New_Gradient_Swatch_3-2)"/><path d="m32 38a7 7 0 1 0 7 7 7.008 7.008 0 0 0 -7-7zm0 12a5 5 0 1 1 5-5 5.006 5.006 0 0 1 -5 5z" fill="url(#New_Gradient_Swatch_3)"/><path d="m32 41a1 1 0 0 0 0 2 2 2 0 0 1 2 2 1 1 0 0 0 2 0 4 4 0 0 0 -4-4z" fill="url(#New_Gradient_Swatch_3-2)"/><path d="m47 33a5.006 5.006 0 0 1 5-5 3 3 0 0 0 0-6h-9v-.1a5.009 5.009 0 0 0 4-4.9 5.006 5.006 0 0 1 5-5 3 3 0 0 0 0-6h-9v-1a3 3 0 0 0 -3-3h-16a3 3 0 0 0 -3 3v1h-9a3 3 0 0 0 0 6 5.006 5.006 0 0 1 5 5 5.009 5.009 0 0 0 4 4.9v.1h-9a3 3 0 0 0 0 6 5.006 5.006 0 0 1 5 5 5.009 5.009 0 0 0 4 4.9v.1h-9a3 3 0 0 0 0 6 5.006 5.006 0 0 1 5 5 5 5 0 0 0 4.158 4.915 2.993 2.993 0 0 0 2.842 2.085h3v5a1 1 0 0 0 1 1h8a1 1 0 0 0 1-1v-5h3a2.993 2.993 0 0 0 2.842-2.085 5 5 0 0 0 4.158-4.915 5.006 5.006 0 0 1 5-5 3 3 0 0 0 0-6h-9v-.1a5.009 5.009 0 0 0 4-4.9zm5-9a1 1 0 0 1 0 2 7.008 7.008 0 0 0 -7 7 3.006 3.006 0 0 1 -2 2.829v-11.829zm0-16a1 1 0 0 1 0 2 7.008 7.008 0 0 0 -7 7 3.006 3.006 0 0 1 -2 2.829v-11.829zm-33 9a7.008 7.008 0 0 0 -7-7 1 1 0 0 1 0-2h9v11.829a3.006 3.006 0 0 1 -2-2.829zm0 16a7.008 7.008 0 0 0 -7-7 1 1 0 0 1 0-2h9v11.829a3.006 3.006 0 0 1 -2-2.829zm0 16a7.008 7.008 0 0 0 -7-7 1 1 0 0 1 0-2h9v11.829a3.006 3.006 0 0 1 -2-2.829zm16 11h-6v-4h6zm5-6h-16a1 1 0 0 1 -1-1v-48a1 1 0 0 1 1-1h16a1 1 0 0 1 1 1v48a1 1 0 0 1 -1 1zm12-14a1 1 0 0 1 0 2 7.008 7.008 0 0 0 -7 7 3.006 3.006 0 0 1 -2 2.829v-11.829z" fill="url(#New_Gradient_Swatch_3)"/></g></svg>