<svg height="597pt" viewBox="-114 -18 597 597.33331" width="597pt" xmlns="http://www.w3.org/2000/svg"><path d="m363.671875 290v-20h-10.269531c.164062 3.3125.269531 6.648438.269531 10s-.105469 6.6875-.269531 10zm0 0"/><path d="m332.527344 298.921875c1.507812-12.523437 1.507812-25.179687 0-37.703125-8.464844-76.148438-66.832032-137.226562-142.519532-149.140625-4.535156-.707031-9.105468-1.277344-13.730468-1.617187-4.179688-.308594-8.378906-.460938-12.605469-.460938-88.703125.085938-162.421875 68.359375-169.316406 156.789062-6.890625 88.429688 55.359375 167.296876 142.976562 181.132813 4.535157.707031 9.105469 1.277344 13.726563 1.617187 4.179687.308594 8.382812.460938 12.613281.460938 86.53125-.042969 159.226563-65.082031 168.855469-151.078125zm-29.066406 56.679687c-.0625.605469-.179688 1.203126-.351563 1.785157-.152344.730469-.386719 1.433593-.699219 2.105469-.09375.15625-.078125.347656-.179687.507812-.34375.542969-.738281 1.054688-1.183594 1.519531-.144531.179688-.207031.410157-.375.582031-.171875.167969-.273437.148438-.378906.257813-1.867188 1.621094-4.234375 2.554687-6.699219 2.640625-1.121094-.023438-2.226562-.234375-3.273438-.628906-.367187-.128906-.722656-.273438-1.070312-.441406-.207031-.101563-.4375-.148438-.648438-.265626l-8.660156-5c-4.742187-2.785156-6.355468-8.867187-3.605468-13.628906 2.75-4.761718 8.824218-6.410156 13.605468-3.699218l8.660156 5c.109376.066406.167969.171874.277344.246093.109375.066407.164063.066407.222656.117188.570313.347656 1.105469.746093 1.601563 1.199219.15625.21875.300781.441406.4375.671874.386719.5.722656 1.039063 1 1.609376.300781.5.558594 1.027343.769531 1.570312.21875.671875.359375 1.367188.417969 2.070312.109375.390626.1875.785157.238281 1.179688 0 .210938-.097656.390625-.105468.601562zm-23.550782-154.265624 8.65625-5c.234375-.132813.496094-.125.734375-.246094.410157-.171875.835938-.3125 1.269531-.421875.917969-.316407 1.878907-.492188 2.851563-.515625h.476563c1.550781-.011719 3.074218.410156 4.402343 1.210937.605469.296875 1.175781.660157 1.699219 1.078125.234375.132813.453125.273438.671875.429688.269531.378906.519531.769531.746094 1.175781.292969.289063.5625.597656.8125.921875.140625.242188.140625.507812.257812.765625.121094.246094.210938.265625.285157.4375.089843.347656.164062.703125.21875 1.058594.238281.703125.390624 1.4375.457031 2.179687.050781.183594.089843.371094.117187.558594-.050781.4375-.128906.867188-.238281 1.289062-.0625.625-.179687 1.242188-.355469 1.84375-.238281.671876-.558594 1.316407-.941406 1.917969-.261719.472657-.558594.921875-.890625 1.351563-.191406.222656-.257813.5-.46875.699218-.417969.332032-.863281.625-1.332031.878907-.238282.246093-.5.46875-.773438.679687l-8.65625 5c-3.09375 1.816406-6.929687 1.835938-10.039062.046875-3.109375-1.792969-5.023438-5.105469-5.019532-8.695312.011719-3.589844 1.9375-6.894531 5.058594-8.671875zm3.761719 68.664062h30c5.519531 0 10 4.476562 10 10s-4.480469 10-10 10h-30c-5.523437 0-10-4.476562-10-10s4.476563-10 10-10zm-259.792969-65.582031c.070313-.675781.207032-1.347657.410156-1.996094.148438-.601563.34375-1.1875.59375-1.753906.105469-.207031.097657-.449219.226563-.660157.234375-.304687.488281-.59375.757813-.867187.238281-.429687.507812-.839844.800781-1.230469.199219-.179687.464843-.257812.664062-.417968.542969-.4375 1.132813-.8125 1.757813-1.121094.277344-.207032.578125-.394532.878906-.558594.179688-.078125.390625-.078125.582031-.152344.445313-.15625.902344-.273437 1.371094-.363281.761719-.144531 1.542969-.199219 2.320313-.15625.355468-.023437.710937-.023437 1.070312 0 1.179688.171875 2.328125.554687 3.378906 1.128906h.078125l8.660157 5c3.121093 1.773438 5.050781 5.082031 5.058593 8.671875.003907 3.589844-1.910156 6.902344-5.019531 8.691406-3.109375 1.789063-6.941406 1.773438-10.039062-.042968l-8.660157-5c-.269531-.210938-.527343-.433594-.769531-.679688-.46875-.253906-.910156-.546875-1.332031-.878906-.210938-.199219-.277344-.484375-.46875-.703125-.328125-.421875-.625-.863281-.886719-1.328125-.761719-1.117188-1.207031-2.421875-1.289062-3.769531-.117188-.429688-.203126-.863281-.253907-1.300781 0-.128907.101563-.3125.109375-.511719zm23.550782 154.246093-8.660157 5c-.222656.125-.46875.171876-.691406.285157-.21875.109375-.316406.269531-.507813.351562-.1875.078125-.417968.050781-.617187.109375-1.023437.363282-2.089844.566406-3.175781.589844-2.46875-.074219-4.839844-1.007812-6.699219-2.640625-.105469-.109375-.269531-.148437-.378906-.257813-.109375-.109374-.175781-.320312-.289063-.460937-.492187-.5-.929687-1.046875-1.300781-1.640625-.140625-.238281-.140625-.507812-.257813-.761719-.121093-.25-.210937-.277343-.28125-.441406-.351562-.75-.578124-1.5625-.671874-2.386719 0-.152344 0-.292968 0-.429687 0-.332031-.085938-.648438-.085938-1 .054688-.402344.132812-.792969.238281-1.183594.058594-.703125.199219-1.394531.421875-2.070313.207032-.539062.46875-1.066406.765625-1.566406.277344-.570312.613281-1.105468 1-1.609375.136719-.230469.285157-.457031.441407-.667969.472656-.4375.976562-.835937 1.503906-1.203124.136718-.097657.285156-.132813.429687-.21875.136719-.089844.097657-.097657.164063-.140626l8.664062-5c3.09375-1.8125 6.925782-1.832031 10.039063-.046874 3.109375 1.789062 5.023437 5.109374 5.019531 8.695312-.011719 3.589844-1.941406 6.898438-5.058594 8.667969zm-3.757813-68.664062h-30c-5.523437 0-10-4.476562-10-10s4.476563-10 10-10h30c5.519531 0 10 4.476562 10 10s-4.480469 10-10 10zm110-160c0-5.523438 4.476563-10 10-10 5.519531 0 10 4.476562 10 10v30c0 5.523438-4.480469 10-10 10-5.523437 0-10-4.476562-10-10zm-51.339844 276.242188-5 8.660156c-.359375.589844-.789062 1.136718-1.273437 1.636718-.117188.148438-.167969.320313-.289063.460938-.121093.140625-.269531.148438-.390625.261719-.710937.648437-1.523437 1.179687-2.398437 1.585937-.324219.160156-.65625.300782-1 .417969-1.042969.398437-2.148438.613281-3.261719.636719-1.117188-.023438-2.230469-.238282-3.28125-.636719-.359375-.121094-.710938-.265625-1.058594-.4375-.238281-.074219-.480468-.160156-.707031-.269531-.3125-.167969-.480469-.457032-.761719-.667969-.46875-.257813-.917968-.554687-1.339844-.890625-.179687-.199219-.25-.453125-.417968-.664062-.441406-.546876-.820313-1.136719-1.132813-1.765626-.195312-.277343-.382812-.570312-.546875-.867187-.117187-.273437-.210937-.554687-.285156-.84375-.058594-.199219-.144531-.378906-.199219-.570313-.207031-.78125-.3125-1.582031-.316406-2.386718 0-.332032.058594-.664063.085937-1 0-.132813 0-.265625 0-.402344.09375-.839844.324219-1.660156.683594-2.421875.070313-.160156.210938-.289063.289063-.449219.066406-.246094.152343-.496094.25-.742187l5-8.65625c2.78125-4.742188 8.867187-6.351563 13.625-3.605469 4.761719 2.75 6.414062 8.824219 3.691406 13.605469zm-3.660156-238.820313c-4.785156 2.757813-10.898437 1.125-13.664063-3.664063l-5-8.660156c-.085937-.15625-.085937-.335937-.164062-.488281-.324219-.6875-.566406-1.40625-.722656-2.148437-.164063-.578126-.273438-1.167969-.328125-1.761719 0-.210938-.121094-.390625-.121094-.601563.003906-.804687.109375-1.605468.316406-2.386718 0-.191407.140625-.371094.199219-.570313.074219-.289063.167969-.570313.285156-.84375.164063-.296875.351563-.589844.546875-.867187.3125-.628907.691407-1.21875 1.132813-1.765626.167968-.210937.238281-.464843.417968-.664062.472657-.425781.972657-.828125 1.488282-1.199219.152344-.101562.300781-.140625.449218-.230469.152344-.089843.105469-.101562.164063-.128906.058594-.03125.257813-.070312.378906-.132812.265625-.152344.539063-.289063.820313-.410156.566406-.289063 1.171875-.488282 1.796875-.601563h.363281c.765625-.085937 1.542969-.085937 2.308594 0 .40625-.023437.816406-.023437 1.21875 0 .132812 0 .230468.09375.363281.113281.125.019532.515625.160156.789063.25.253906.0625.507812.144532.757812.238282.640625.21875 1.246094.523437 1.800781.902343.109375.070313.230469.191407.347657.277344l.152343.125 1 .796875c.273438.378906.523438.773438.753907 1.179688.285156.289062.558593.59375.808593.917968l5 8.660156c2.757813 4.789063 1.117188 10.898438-3.660156 13.664063zm75 252.578125v10c0 5.523438-4.480469 10-10 10-5.523437 0-10-4.476562-10-10v-20c0-5.523438 4.476563-10 10-10 5.519531 0 10 4.476562 10 10zm4.140625-125.859375c-6.378906 6.40625-16.265625 7.726563-24.097656 3.210937-7.832032-4.515624-11.644532-13.734374-9.292969-22.464843l-30.242187-30.238281c-3.789063-3.921876-3.738282-10.160157.121093-14.019532 3.855469-3.855468 10.097657-3.910156 14.019531-.121094l30.246094 30.253907c3.347656-.882813 6.863282-.882813 10.203125 0l51.46875-51.46875c3.925781-3.792969 10.160157-3.738281 14.019531.121093 3.855469 3.859376 3.910157 10.09375.121094 14.015626l-51.460937 51.457031c1.839843 6.871093-.101563 14.199219-5.105469 19.253906zm70.617188 116.859375c-.0625.757812-.21875 1.5-.457032 2.21875-.0625.148438 0 .320312-.101562.460938-.167969.300781-.351563.585937-.554688.871093-.304687.628907-.6875 1.222657-1.125 1.769531-.171875.207032-.242187.460938-.421875.664063-.414062.328125-.859375.625-1.328125.875-.238281.246094-.496094.46875-.769531.679687-.210937.132813-.449219.171876-.671875.28125-.324219.164063-.65625.304688-1 .429688-1.050781.394531-2.15625.609375-3.28125.628906-1.113281-.019531-2.214844-.234375-3.257812-.628906-.339844-.125-.675782-.261719-1-.421875-.867188-.410156-1.667969-.945313-2.382813-1.585937-.117187-.113282-.277344-.140626-.390625-.257813-.105469-.125-.164062-.3125-.289062-.464844-.480469-.5-.90625-1.046875-1.269532-1.640625l-5-8.660156c-1.816406-3.09375-1.828125-6.925781-.042968-10.039062 1.789062-3.109376 5.101562-5.027344 8.691406-5.015626 3.589844.007813 6.898437 1.9375 8.671875 5.054688l5 8.660156c.097656.242188.179687.492188.25.742188.082031.160156.21875.285156.292969.449218.136718.339844.117187.730469.230468 1.078126.226563.703124.378906 1.4375.449219 2.171874 0 .191407.121094.371094.121094.558594-.097657.378906-.21875.753906-.363281 1.121094zm.117187-260.320312c-.046875.613281-.164063 1.21875-.34375 1.8125-.152344.6875-.382813 1.359374-.683594 2-.089843.175781-.078125.386718-.1875.566406l-5 8.660156c-2.78125 4.742188-8.867187 6.355469-13.628906 3.605469-4.757813-2.75-6.410156-8.824219-3.695313-13.605469l5-8.660156c.253907-.324219.523438-.636719.8125-.925782.226563-.40625.476563-.796874.75-1.171874.210938-.152344.429688-.296876.660157-.421876.535156-.429687 1.117187-.800781 1.726562-1.109374.417969-.242188.847657-.453126 1.296875-.628907 1-.355469 2.054688-.546875 3.113282-.5625.148437-.007812.289062-.007812.433593 0 .976563.027344 1.949219.199219 2.878907.523438.429687.105469.851562.25 1.257812.417969.25.070312.492188.152343.734375.25.320313.246093.625.515624.90625.800781.421875.214843.820313.46875 1.191406.757812.179688.191407.257813.464844.429688.675781.386719.5.722656 1.042969 1 1.613282.292969.5.546875 1.015625.761719 1.554687.207031.675781.347656 1.371094.421874 2.078125.101563.386719.179688.78125.238282 1.175782.050781.210937-.054688.402343-.074219.613281zm0 0"/><path d="m232.21875 457.222656c-.507812.191406-1 .347656-1.546875.535156-3.519531 1.335938-7.070313 2.574219-10.664063 3.683594-1.375.429688-2.777343.800782-4.179687 1.191406-2.769531.785157-5.546875 1.546876-8.359375 2.207032-1.578125.371094-3.167969.710937-4.761719 1-2.707031.5625-5.433593 1.066406-8.167969 1.519531-1.589843.261719-3.179687.523437-4.78125.742187-2.929687.410157-5.878906.707032-8.828124 1-1.398438.125-2.78125.289063-4.179688.390626-4.339844.296874-8.699219.476562-13.078125.476562-4.382813 0-8.742187-.179688-13.082031-.476562-1.402344-.101563-2.777344-.265626-4.179688-.390626-3-.273437-5.898437-.570312-8.828125-1-1.601562-.21875-3.183593-.480468-4.78125-.742187-2.738281-.449219-5.484375-.996094-8.203125-1.53125-1.566406-.328125-3.148437-.65625-4.707031-1-2.839844-.679687-5.660156-1.4375-8.460937-2.242187-1.359376-.382813-2.71875-.734376-4.066407-1.15625-3.6875-1.152344-7.355469-2.410157-11.003906-3.777344-.410156-.160156-.839844-.285156-1.25-.441406-4.050781-1.582032-8-3.308594-12-5.160157-1-.492187-2.0625-1-3.089844-1.550781-2.140625-1.0625-4.296875-2.070312-6.398437-3.210938v112.710938h180.050781v-112.691406c-2.003906 1.097656-4.121094 2.082031-6.191406 3.101562-1.121094.5625-2.226563 1.160156-3.359375 1.691406-3.921875 1.839844-7.882813 3.558594-11.902344 5.121094zm0 0"/><path d="m95.128906 102.777344c.488282-.191406 1.003906-.335938 1.480469-.515625 3.539063-1.332031 7.113281-2.570313 10.722656-3.703125 1.378907-.429688 2.777344-.800782 4.179688-1.191406 2.769531-.785157 5.546875-1.546876 8.359375-2.207032 1.578125-.371094 3.167968-.710937 4.761718-1.050781 2.710938-.558594 5.429688-1.066406 8.160157-1.523437 1.59375-.257813 3.1875-.515626 4.789062-.734376 2.929688-.410156 5.878907-.722656 8.835938-1 1.394531-.132812 2.769531-.289062 4.160156-.390624 4.351563-.300782 8.710937-.480469 13.09375-.480469 4.378906 0 8.738281.179687 13.089844.480469 1.386719.101562 2.769531.257812 4.148437.390624 3 .257813 5.917969.570313 8.859375 1 1.589844.21875 3.167969.476563 4.761719.734376 2.746094.457031 5.476562 1.003906 8.207031 1.535156 1.570313.328125 3.152344.660156 4.710938 1 2.84375.679687 5.660156 1.4375 8.460937 2.238281 1.359375.390625 2.722656.742187 4.070313 1.160156 3.703125 1.148438 7.371093 2.414063 11 3.800781.390625.148438.789062.265626 1.179687.417969 4.058594 1.574219 8 3.3125 12 5.160157 1 .492187 2.058594 1.003906 3.089844 1.550781 2.136719 1.058593 4.300781 2.070312 6.402344 3.210937v-112.660156h-179.980469v112.691406c2-1.097656 4.101563-2.070312 6.160156-3.089844 1.136719-.5625 2.246094-1.160156 3.398438-1.703124 3.910156-1.839844 7.882812-3.558594 11.898437-5.121094zm0 0"/></svg>