<?xml version="1.0" encoding="iso-8859-1"?>
<!-- Generator: Adobe Illustrator 19.0.0, SVG Export Plug-In . SVG Version: 6.00 Build 0)  -->
<svg version="1.1" id="Layer_1" xmlns="http://www.w3.org/2000/svg" xmlns:xlink="http://www.w3.org/1999/xlink" x="0px" y="0px"
	 viewBox="0 0 512 512" style="enable-background:new 0 0 512 512;" xml:space="preserve">
<path style="fill:#FFEEC0;" d="M149.545,115.166V59.632c0-25.079,20.331-45.41,45.41-45.41h79.846
	c25.079,0,45.41,20.331,45.41,45.41v55.534"/>
<path style="fill:#FFC61B;" d="M334.434,115.166H305.99V59.632c0-17.198-13.99-31.188-31.188-31.188h-79.848
	c-17.196,0-31.188,13.99-31.188,31.188v55.534h-28.444V59.632C135.323,26.752,162.074,0,194.955,0h79.848
	c32.88,0,59.632,26.752,59.632,59.632v55.534H334.434z"/>
<path style="fill:#FFEEC0;" d="M320.212,385.388v66.98c0,25.079-20.331,45.41-45.41,45.41h-79.846
	c-25.079,0-45.41-20.331-45.41-45.41v-66.98"/>
<g>
	<path style="fill:#FFC61B;" d="M274.803,512h-79.848c-32.882,0-59.632-26.752-59.632-59.632v-66.98h28.444v66.98
		c0,17.198,13.99,31.188,31.188,31.188h79.848c17.198,0,31.188-13.99,31.188-31.188v-66.98h28.444v66.98
		C334.434,485.248,307.684,512,274.803,512z"/>
	<path style="fill:#FFC61B;" d="M234.879,291.945c-8.175,0-15.861-3.183-21.641-8.966l-25.19-25.19
		c-5.554-5.554-5.555-14.559,0-20.115c5.554-5.552,14.559-5.552,20.113,0l25.192,25.192c0.523,0.523,1.119,0.633,1.527,0.633
		c0.408,0,1.004-0.11,1.526-0.631l38.649-38.65c5.555-5.552,14.558-5.552,20.115,0c5.554,5.554,5.554,14.559,0,20.115
		l-38.649,38.649C250.739,288.762,243.054,291.945,234.879,291.945z"/>
	<path style="fill:#FFC61B;" d="M397.212,270.222H366.23c-7.854,0-14.222-6.369-14.222-14.222s6.369-14.222,14.222-14.222h30.982
		c7.854,0,14.222,6.369,14.222,14.222C411.434,263.853,405.067,270.222,397.212,270.222z"/>
	<path style="fill:#FFC61B;" d="M397.878,298.667c-7.854,0-14.222-6.369-14.222-14.222v-56.889c0-7.854,6.369-14.222,14.222-14.222
		s14.222,6.369,14.222,14.222v56.889C412.1,292.298,405.732,298.667,397.878,298.667z"/>
	<path style="fill:#FFC61B;" d="M308.83,413.042H160.929c-33.651,0-61.029-27.378-61.029-61.029V159.987
		c0-33.651,27.378-61.029,61.029-61.029H308.83c33.651,0,61.028,27.378,61.028,61.029v192.026
		C369.857,385.664,342.481,413.042,308.83,413.042z M160.929,127.403c-17.967,0-32.585,14.618-32.585,32.585v192.026
		c0,17.967,14.618,32.585,32.585,32.585H308.83c17.967,0,32.583-14.618,32.583-32.585V159.987c0-17.967-14.616-32.585-32.583-32.585
		L160.929,127.403L160.929,127.403z"/>
</g>
<g>
</g>
<g>
</g>
<g>
</g>
<g>
</g>
<g>
</g>
<g>
</g>
<g>
</g>
<g>
</g>
<g>
</g>
<g>
</g>
<g>
</g>
<g>
</g>
<g>
</g>
<g>
</g>
<g>
</g>
</svg>
